<svg width="100" height="100" viewBox="0 0 100 100" fill="none" xmlns="http://www.w3.org/2000/svg">
<path d="M99.5122 29.5155C99.4562 25.3167 98.6702 21.1596 97.1893 17.2303C95.905 13.9159 93.9436 10.9059 91.4302 8.39245C88.9168 5.87905 85.9067 3.91757 82.5923 2.63333C78.7135 1.17728 74.6157 0.389962 70.4735 0.304912C65.1403 0.0665266 63.4494 0 49.9113 0C36.3732 0 34.638 3.71744e-07 29.3436 0.304912C25.2032 0.390587 21.1074 1.17789 17.2303 2.63333C13.9154 3.91667 10.9049 5.87784 8.39136 8.39136C5.87784 10.9049 3.91667 13.9154 2.63333 17.2303C1.17436 21.1062 0.388752 25.203 0.310456 29.3436C0.07207 34.6823 0 36.3732 0 49.9113C0 63.4494 -4.13049e-08 65.1791 0.310456 70.479C0.393614 74.6258 1.1753 78.7172 2.63333 82.6034C3.91883 85.9173 5.88145 88.9266 8.39581 91.439C10.9102 93.9515 13.921 95.9118 17.2358 97.1948C21.1023 98.7094 25.1989 99.5531 29.3492 99.6895C34.6879 99.9279 36.3788 100 49.9169 100C63.4549 100 65.1902 100 70.4845 99.6895C74.6267 99.608 78.7247 98.8225 82.6034 97.3667C85.9169 96.081 88.9262 94.119 91.4394 91.6057C93.9526 89.0925 95.9147 86.0832 97.2004 82.7697C98.6584 78.889 99.4401 74.7977 99.5232 70.6453C99.7616 65.3121 99.8337 63.6212 99.8337 50.0776C99.8226 36.5395 99.8226 34.8209 99.5122 29.5155ZM49.878 75.5128C35.719 75.5128 24.2488 64.0426 24.2488 49.8836C24.2488 35.7246 35.719 24.2544 49.878 24.2544C56.6753 24.2544 63.1942 26.9546 68.0006 31.761C72.8071 36.5674 75.5073 43.0863 75.5073 49.8836C75.5073 56.6809 72.8071 63.1998 68.0006 68.0062C63.1942 72.8126 56.6753 75.5128 49.878 75.5128ZM76.5273 29.2826C75.7423 29.2834 74.9649 29.1293 74.2395 28.8292C73.5141 28.5291 72.855 28.0889 72.2999 27.5338C71.7448 26.9788 71.3046 26.3196 71.0045 25.5942C70.7044 24.8688 70.5503 24.0914 70.5511 23.3064C70.5511 22.5219 70.7056 21.7451 71.0058 21.0204C71.306 20.2957 71.746 19.6371 72.3007 19.0825C72.8554 18.5278 73.5139 18.0878 74.2386 17.7876C74.9634 17.4874 75.7401 17.3329 76.5246 17.3329C77.309 17.3329 78.0858 17.4874 78.8105 17.7876C79.5353 18.0878 80.1938 18.5278 80.7485 19.0825C81.3032 19.6371 81.7432 20.2957 82.0434 21.0204C82.3436 21.7451 82.4981 22.5219 82.4981 23.3064C82.4981 26.6105 79.8259 29.2826 76.5273 29.2826Z" fill="#F6F1F1"/>
<path d="M49.8782 66.5268C59.0727 66.5268 66.5264 59.0732 66.5264 49.8787C66.5264 40.6841 59.0727 33.2305 49.8782 33.2305C40.6836 33.2305 33.23 40.6841 33.23 49.8787C33.23 59.0732 40.6836 66.5268 49.8782 66.5268Z" fill="#F6F1F1"/>
</svg>
