<?xml version="1.0" encoding="UTF-8"?>
<svg id="Layer_2" data-name="Layer 2" xmlns="http://www.w3.org/2000/svg" viewBox="0 0 602.56 200">
  <defs>
    <style>
      .cls-1 {
        fill: #f6f1f1;
      }

      .cls-2 {
        fill: #afd3e2;
      }
    </style>
  </defs>
  <g id="Layer_1-2" data-name="Layer 1">
    <g>
      <g>
        <polygon class="cls-2" points="229.15 140 201.89 200 186.17 200 218.14 140 229.15 140"/>
        <polygon class="cls-2" points="292.75 0 265.49 60 260.78 60 292.75 0"/>
        <polygon class="cls-2" points="341.78 60 337.07 60 309.81 0 341.78 60"/>
        <polygon class="cls-2" points="416.39 200 400.67 200 373.41 140 384.42 140 416.39 200"/>
        <polygon class="cls-2" points="303.52 60 299.04 60 299.41 50.59 303.15 50.59 303.52 60"/>
        <polygon class="cls-2" points="303.04 46.36 299.52 46.36 300.31 26.36 302.25 26.36 303.04 46.36"/>
        <polygon class="cls-2" points="302.25 24.81 300.31 24.81 300.7 14.81 301.86 14.81 302.25 24.81"/>
        <polygon class="cls-2" points="301.83 13.9 300.73 13.9 301.05 5.9 301.51 5.9 301.83 13.9"/>
        <polygon class="cls-2" points="301.48 5 301.08 5 301.28 0 301.48 5"/>
        <polygon class="cls-2" points="307.28 200 295.28 200 296.09 140 306.47 140 307.28 200"/>
      </g>
      <g>
        <path class="cls-1" d="m38.88,128l-13.36-18.72c-1.76.24-3.52.4-5.44.4H4.08v18.32H0v-56h20.08c14.08,0,22.56,7.04,22.56,18.88,0,8.88-4.8,15.04-13.12,17.52l14,19.6h-4.64Zm-18.8-21.92c12,0,18.4-5.6,18.4-15.2s-6.4-15.2-18.4-15.2H4.08v30.4h16Z"/>
        <path class="cls-1" d="m58.64,100c0-16.24,12.4-28.4,29.12-28.4s29.12,12.08,29.12,28.4-12.48,28.4-29.12,28.4-29.12-12.16-29.12-28.4Zm54.08,0c0-14.16-10.72-24.64-24.96-24.64s-25.04,10.48-25.04,24.64,10.72,24.64,25.04,24.64,24.96-10.48,24.96-24.64Z"/>
        <path class="cls-1" d="m171.28,112.24h-32.48l-7.12,15.76h-4.4l25.76-56h4.08l25.76,56h-4.4l-7.2-15.76Zm-1.52-3.44l-14.72-32.32-14.64,32.32h29.36Z"/>
        <path class="cls-1" d="m199.44,72h22.16c17.76,0,29.76,11.68,29.76,28s-12,28-29.76,28h-22.16v-56Zm21.84,52.32c15.84,0,26-10.08,26-24.32s-10.16-24.32-26-24.32h-17.76v48.64h17.76Z"/>
        <path class="cls-1" d="m314.56,90.88c0,11.76-8.48,18.8-22.56,18.8h-16v18.32h-4.08v-56h20.08c14.08,0,22.56,7.04,22.56,18.88Zm-4.16,0c0-9.68-6.4-15.2-18.4-15.2h-16v30.32h16c12,0,18.4-5.52,18.4-15.12Z"/>
        <path class="cls-1" d="m373.6,128l-13.36-18.72c-1.76.24-3.52.4-5.44.4h-16v18.32h-4.08v-56h20.08c14.08,0,22.56,7.04,22.56,18.88,0,8.88-4.8,15.04-13.12,17.52l14,19.6h-4.64Zm-18.8-21.92c12,0,18.4-5.6,18.4-15.2s-6.4-15.2-18.4-15.2h-16v30.4h16Z"/>
        <path class="cls-1" d="m398.72,72h4.08v56h-4.08v-56Z"/>
        <path class="cls-1" d="m474.32,72v56h-3.36l-38.16-48.64v48.64h-4.08v-56h3.44l38.08,48.64v-48.64h4.08Z"/>
        <path class="cls-1" d="m494.88,100c0-16.32,12.4-28.4,29.04-28.4,7.92,0,15.04,2.56,19.92,7.76l-2.56,2.64c-4.8-4.72-10.64-6.64-17.2-6.64-14.32,0-25.12,10.56-25.12,24.64s10.8,24.64,25.12,24.64c6.56,0,12.4-2,17.2-6.72l2.56,2.64c-4.88,5.2-12,7.84-19.92,7.84-16.64,0-29.04-12.08-29.04-28.4Z"/>
        <path class="cls-1" d="m602.56,124.32v3.68h-38.64v-56h37.44v3.68h-33.36v22.08h29.84v3.6h-29.84v22.96h34.56Z"/>
      </g>
    </g>
  </g>
</svg>