<?xml version="1.0" encoding="UTF-8"?>
<svg id="Layer_2" data-name="Layer 2" xmlns="http://www.w3.org/2000/svg" viewBox="0 0 312.79 380.62">
  <g id="Layer_1-2" data-name="Layer 1">
    <g>
      <path d="m282.81,60.27c-16.6.25-30.37-13.24-30.5-29.88-.13-16.5,13.12-30.09,29.63-30.38,16.92-.3,30.65,12.99,30.86,29.88.21,16.59-13.16,30.13-29.98,30.39Z"/>
      <path d="m30.34,380.62C13.86,380.78.22,367.44,0,350.96c-.22-16.68,13.1-30.38,29.78-30.62,16.72-.24,30.5,13.07,30.73,29.67.23,16.83-13.19,30.44-30.17,30.6Z"/>
      <path d="m138.82,217.51c-3.97-.08-6.99-1.82-8.67-5.43-1.72-3.71-1.37-7.38,1.38-10.47,2.73-3.07,5.63-6.01,8.68-8.77,1.99-1.8,2.39-3.01.12-4.95-2.83-2.42-5.39-5.18-7.97-7.9-4.11-4.34-4.24-10.24-.43-14.08,3.82-3.85,9.77-3.77,14.08.3,2.99,2.83,5.89,5.75,8.73,8.73,1.24,1.3,2.08,1.31,3.32,0,2.74-2.9,5.58-5.71,8.45-8.48,4.47-4.31,10.46-4.51,14.35-.57,3.89,3.94,3.63,9.86-.69,14.37-2.33,2.43-4.62,4.92-7.17,7.11-2.37,2.03-2.89,3.52-.13,5.75,2.7,2.18,5.04,4.83,7.44,7.36,4.26,4.48,4.39,10.5.41,14.36-3.88,3.76-9.74,3.55-14.09-.59-2.89-2.75-5.73-5.56-8.45-8.48-1.37-1.46-2.26-1.39-3.59.03-2.73,2.91-5.62,5.66-8.45,8.48-2.03,2.02-4.4,3.24-7.33,3.2Z"/>
      <path d="m295.54,371.54c-2.8.05-5.1-1.07-7.04-2.98-2.31-2.27-4.75-4.44-6.84-6.9-1.95-2.3-3.39-2.65-5.48-.13-2.06,2.48-4.48,4.68-6.84,6.89-4.35,4.08-10.17,4.16-14.05.27-3.91-3.92-3.76-9.62.45-14.02,2.5-2.61,5.03-5.19,7.68-7.65,1.43-1.32,1.49-2.21.02-3.56-2.65-2.45-5.18-5.04-7.68-7.65-4.22-4.41-4.39-10.11-.5-14.03,3.86-3.88,9.71-3.84,14.06.22,2.64,2.46,5.22,5.01,7.65,7.67,1.48,1.63,2.45,1.45,3.85-.07,2.45-2.65,5.02-5.2,7.65-7.67,4.17-3.92,9.96-4.02,13.77-.34,4.02,3.88,4.03,9.59-.11,14.02-2.55,2.73-5.21,5.37-7.93,7.92-1.32,1.24-1.31,2.07-.01,3.31,2.96,2.85,5.92,5.72,8.63,8.8,2.71,3.08,3.18,6.72,1.38,10.45-1.73,3.57-4.73,5.31-8.67,5.44Z"/>
      <path d="m17.3,61.67c-3.98-.04-6.94-1.83-8.71-5.37-1.85-3.72-1.39-7.35,1.32-10.43,2.55-2.89,5.3-5.62,8.14-8.24,1.73-1.6,2.04-2.69.09-4.4-2.62-2.29-5.03-4.84-7.42-7.38-4.17-4.43-4.24-10.11-.27-14.02,3.89-3.83,9.73-3.68,14.05.44,2.61,2.49,5.19,5.03,7.65,7.68,1.35,1.46,2.28,1.37,3.6-.03,2.47-2.64,5.03-5.19,7.65-7.67,4.34-4.11,10.18-4.22,14.04-.37,3.91,3.9,3.81,9.63-.35,14.04-2.31,2.45-4.63,4.89-7.15,7.11-1.9,1.68-2.2,2.85-.1,4.64,2.46,2.09,4.65,4.51,6.9,6.84,4.45,4.61,4.75,10.26.79,14.31-3.97,4.07-9.93,3.8-14.59-.71-2.42-2.34-4.85-4.67-7.11-7.16-1.46-1.61-2.45-1.47-3.86.06-2.45,2.65-5.07,5.14-7.65,7.68-1.94,1.91-4.22,3.06-7.02,2.98Z"/>
      <path d="m158.77,87.76c-5.36-.01-9.1-2.9-10.3-7.21-1.12-4.01.52-8.55,4.3-10.61,3.04-1.65,6.28-3.01,9.57-4.08,4.06-1.32,8.36.61,10.57,4.28,2.3,3.84,1.97,8.73-1.3,11.66-3.88,3.48-8.83,4.85-12.85,5.96Z"/>
      <path d="m153.81,292.86c5.6.05,9.38,3,10.54,7.26,1.09,4-.58,8.54-4.36,10.59-3.04,1.65-6.28,3.01-9.57,4.07-4.05,1.3-8.36-.65-10.56-4.32-2.23-3.72-1.98-8.39,1.1-11.38,3.87-3.76,9.04-4.91,12.85-6.21Z"/>
      <path d="m69.33,145.15c7.91-.02,12.63,6.62,10.17,12.93-1.3,3.36-3.23,6.45-5.46,9.27-2.94,3.72-8.05,4.5-12.11,2.16-4.09-2.36-6.01-7.12-4.32-11.51,1.34-3.48,3.36-6.65,5.64-9.58,1.77-2.27,4.3-3.28,6.07-3.27Z"/>
      <path d="m242.19,235.5c-6.91-.08-11.57-7.09-8.69-13.41,1.38-3.03,3.15-5.94,5.12-8.62,2.82-3.84,7.89-4.71,12.03-2.47,4.11,2.23,6.17,7.03,4.58,11.41-1.36,3.74-3.49,7.14-6.04,10.19-1.76,2.11-4.27,2.89-7.01,2.89Z"/>
      <path d="m111.19,97.84c4.07.18,7.17,1.96,8.85,5.73,1.67,3.76,1.13,7.4-1.65,10.37-2.19,2.34-4.67,4.47-7.27,6.37-3.46,2.53-7.73,2.33-11.12-.12-3.31-2.39-4.73-6.61-3.55-10.56,1.44-4.82,10.15-11.78,14.75-11.8Z"/>
      <path d="m137.18,79.54c3.39.19,6.47,1.92,8.24,5.67,1.7,3.63,1.09,7.92-1.82,10.66-2.9,2.74-6.29,4.92-9.99,6.37-3.79,1.48-7.36.55-10.24-2.4-2.74-2.8-3.38-7.16-1.72-10.72,1.72-3.7,10.75-9.51,15.53-9.58Z"/>
      <path d="m201.93,282.78c-4.33-.18-7.36-1.87-9.09-5.48-1.8-3.75-1.37-7.43,1.39-10.45,2.25-2.47,4.85-4.71,7.58-6.64,4.05-2.88,9.25-2.04,12.51,1.64,3.22,3.63,3.5,9.09.03,12.59-3.61,3.64-6.9,8.08-12.41,8.33Z"/>
      <path d="m89,119.93c7.38-.04,12.12,7.84,8.45,14.27-1.78,3.13-4.18,5.89-6.82,8.33-3.5,3.23-9.05,3.13-12.62.06-3.65-3.14-4.57-8.4-1.82-12.43,1.88-2.75,4.11-5.29,6.4-7.72,1.66-1.77,3.93-2.55,6.41-2.51Z"/>
      <path d="m238.1,243.79c-.02,6.91-7.49,15.97-12.64,16.8-3.88.63-7.18-.61-9.5-3.8-2.4-3.31-2.72-6.95-.56-10.48,1.88-3.07,4.18-5.91,6.88-8.28,3.08-2.7,6.77-3.03,10.44-1.28,3.55,1.7,5.32,4.69,5.37,7.04Z"/>
      <path d="m177.34,301.1c-5.22-.03-8.83-2.52-10.24-6.17-1.42-3.69-.56-7.96,2.49-10.57,2.73-2.34,5.81-4.27,9.08-5.78,3.6-1.67,7.93-.71,10.64,2.09,2.74,2.84,3.8,7.29,1.84,10.67-3.31,5.72-9.02,8.1-13.81,9.76Z"/>
      <path d="m56.66,172.96c6.1.27,10.49,6.12,8.78,12.02-.89,3.08-2.12,6.1-3.56,8.97-2.2,4.38-7.17,6.18-11.73,4.57-4.53-1.6-7.19-6.17-6.15-10.98.79-3.64,2.2-7.13,4.13-10.31,1.87-3.09,4.88-4.48,8.54-4.27Z"/>
      <path d="m119.01,324.59c-5.29.04-9.14-3.02-10.2-7.69-1.01-4.45,1.35-9.19,5.85-10.83,3.25-1.18,6.66-2.05,10.08-2.56,4.34-.65,8.66,2.51,9.96,6.77,1.37,4.48-.52,9.36-4.74,11.37-3.6,1.71-7.55,2.39-10.95,2.93Z"/>
      <path d="m187.65,77.21c-4.94-.01-8.86-3.28-9.82-7.92-.9-4.36,1.37-8.92,5.62-10.61,3.22-1.28,6.61-2.19,10.08-2.52,5.15-.5,9.28,2.58,10.43,7.55,1.06,4.56-1.51,9.36-6.16,11.01-2.8.99-5.74,1.56-8.63,2.3-.6.15-1.23.17-1.53.2Z"/>
      <path d="m277.73,162.03c-.43,3.08-1.04,6.78-2.43,10.23-1.8,4.48-6.77,6.7-11.37,5.41-4.64-1.31-7.76-5.78-7.03-10.48.48-3.06,1.16-6.11,2.09-9.06,1.46-4.64,6.25-7.41,10.8-6.54,4.82.93,8.01,4.87,7.93,10.44Z"/>
      <path d="m281.6,133.46c-.29,2.23-.14,4.48-.8,6.67-1.45,4.76-5.59,7.48-10.6,6.88-4.62-.56-8.19-4.35-8.26-9.12-.05-2.98.11-6,.54-8.94.83-5.62,4.99-8.84,10.46-8.4,5.07.41,8.61,4.46,8.66,9.91,0,1,0,1.99,0,2.99Z"/>
      <path d="m35.1,217.65c.55-2.21,1.15-5.79,2.37-9.14,1.71-4.69,6.81-6.91,11.61-5.49,4.55,1.34,7.57,5.92,6.78,10.65-.49,2.93-1.14,5.86-2.02,8.69-1.45,4.68-6.16,7.51-10.7,6.7-4.96-.88-8.23-4.96-8.04-11.41Z"/>
      <path d="m50.89,246.43c-.18,1.58-.28,3.97-.76,6.27-1.01,4.79-5.25,7.76-10.23,7.38-4.68-.36-8.41-4-8.62-8.76-.13-2.98-.03-6,.33-8.96.71-5.76,5.04-9.27,10.55-8.82,5.23.42,8.74,4.53,8.74,10.23,0,.62,0,1.25,0,2.66Z"/>
      <path d="m269.05,191.84c-.85,4.12-2.26,8.8-5.28,12.69-2.67,3.43-7.76,4.15-11.59,2.13-4-2.11-6.16-6.77-4.81-11.08.96-3.08,2.15-6.13,3.6-9.01,2.01-3.99,6.56-5.81,10.78-4.68,4.38,1.17,7.28,4.83,7.31,9.95Z"/>
      <path d="m50.99,276.91c.2,6.05-3.06,10.25-8.39,10.83-5.64.61-9.8-2.79-10.83-8.86-1.23-7.25,1.34-12.39,6.89-13.76,6.99-1.73,12.06,3.11,12.34,11.79Z"/>
      <path d="m261.79,104.01c-.28-6.28,3.01-10.61,8.47-11.12,5.81-.55,9.89,2.96,10.84,9.31,1.36,9.12-4.5,15.47-12.24,13.25-4.51-1.29-6.78-4.96-7.07-11.44Z"/>
      <path d="m220.73,51.69c5.7-.21,10,3.15,10.58,8.26.63,5.55-2.56,9.73-8.33,10.87-1.09.22-2.21.37-3.32.43-6.19.36-10.75-3.24-11.26-8.85-.5-5.48,3.6-9.93,9.73-10.53.87-.09,1.74-.12,2.6-.17Z"/>
      <path d="m92.11,328.96c-5.66.24-10.03-3.13-10.65-8.2-.69-5.69,2.59-9.89,8.62-10.99,3.88-.71,7.68-.93,10.95,1.92,5.57,4.84,3.89,13.84-3.05,16.4-1.91.7-3.9.72-5.88.88Z"/>
    </g>
  </g>
</svg>