<svg width="124" height="100" viewBox="0 0 124 100" fill="none" xmlns="http://www.w3.org/2000/svg">
<path d="M110.469 24.9217C110.55 26.018 110.55 27.1081 110.55 28.1982C110.55 61.5587 85.1585 100 38.7545 100C24.4581 100 11.1765 95.8589 0 88.6668C2.02982 88.8986 3.98446 88.9801 6.09573 88.9801C17.4539 89.0075 28.4904 85.2095 37.4264 78.1982C32.1603 78.1029 27.0554 76.3655 22.8244 73.2285C18.5935 70.0915 15.4478 65.7117 13.8266 60.7004C15.3865 60.9322 16.9528 61.0888 18.5942 61.0888C20.8558 61.0888 23.1299 60.7756 25.2412 60.2305C19.5261 59.0766 14.3871 55.9789 10.698 51.464C7.00892 46.9491 4.99745 41.2959 5.00564 35.4655V35.1522C8.36988 37.0254 12.2729 38.197 16.4077 38.3536C12.9438 36.0518 10.1035 32.9283 8.14021 29.2619C6.17692 25.5955 5.15169 21.5002 5.15599 17.3412C5.15599 12.6551 6.40271 8.35735 8.58915 4.61095C14.9301 12.4109 22.8386 18.7919 31.8026 23.3408C40.7666 27.8897 50.5861 30.505 60.6252 31.0174C60.2368 29.138 59.9987 27.1896 59.9987 25.2349C59.9971 21.9206 60.6487 18.6384 61.9163 15.576C63.1839 12.5136 65.0426 9.73108 67.3862 7.38747C69.7298 5.04386 72.5123 3.18513 75.5747 1.91754C78.6371 0.649954 81.9193 -0.00164377 85.2337 3.11404e-06C92.5009 3.11404e-06 99.0603 3.04473 103.671 7.96893C109.321 6.87644 114.738 4.81407 119.684 1.8732C117.801 7.70465 113.856 12.6494 108.589 15.7812C113.6 15.2097 118.497 13.8921 123.117 11.8719C119.666 16.9033 115.39 21.3153 110.469 24.9217Z" fill="#F6F1F1"/>
</svg>
